<svg width="96" height="25" viewBox="0 0 96 25" fill="none" xmlns="http://www.w3.org/2000/svg">
<path d="M29.184 20V8.8H30.528V20H29.184ZM32.8228 20V12.064H34.0388L34.1188 13.488C34.3748 12.9867 34.7428 12.592 35.2228 12.304C35.7028 12.016 36.2468 11.872 36.8548 11.872C37.7934 11.872 38.5401 12.16 39.0948 12.736C39.6601 13.3013 39.9427 14.176 39.9427 15.36V20H38.5988V15.504C38.5988 13.8507 37.9161 13.024 36.5508 13.024C35.8681 13.024 35.2974 13.2747 34.8388 13.776C34.3908 14.2667 34.1668 14.9707 34.1668 15.888V20H32.8228ZM41.979 20V12.064H43.195L43.275 13.488C43.531 12.9867 43.899 12.592 44.379 12.304C44.859 12.016 45.403 11.872 46.011 11.872C46.9497 11.872 47.6963 12.16 48.251 12.736C48.8163 13.3013 49.099 14.176 49.099 15.36V20H47.755V15.504C47.755 13.8507 47.0723 13.024 45.707 13.024C45.0243 13.024 44.4537 13.2747 43.995 13.776C43.547 14.2667 43.323 14.9707 43.323 15.888V20H41.979ZM54.7513 20.192C54.0046 20.192 53.3326 20.0213 52.7353 19.68C52.1379 19.3387 51.6633 18.8587 51.3113 18.24C50.9699 17.6107 50.7993 16.8747 50.7993 16.032C50.7993 15.1893 50.9753 14.4587 51.3273 13.84C51.6793 13.2107 52.1539 12.7253 52.7513 12.384C53.3593 12.0427 54.0366 11.872 54.7833 11.872C55.5299 11.872 56.2019 12.0427 56.7993 12.384C57.3966 12.7253 57.8659 13.2107 58.2073 13.84C58.5593 14.4587 58.7353 15.1893 58.7353 16.032C58.7353 16.8747 58.5593 17.6107 58.2073 18.24C57.8553 18.8587 57.3753 19.3387 56.7673 19.68C56.1699 20.0213 55.4979 20.192 54.7513 20.192ZM54.7513 19.04C55.2099 19.04 55.6366 18.928 56.0313 18.704C56.4259 18.48 56.7459 18.144 56.9913 17.696C57.2366 17.248 57.3593 16.6933 57.3593 16.032C57.3593 15.3707 57.2366 14.816 56.9913 14.368C56.7566 13.92 56.4419 13.584 56.0473 13.36C55.6526 13.136 55.2313 13.024 54.7833 13.024C54.3246 13.024 53.8979 13.136 53.5033 13.36C53.1086 13.584 52.7886 13.92 52.5433 14.368C52.2979 14.816 52.1753 15.3707 52.1753 16.032C52.1753 16.6933 52.2979 17.248 52.5433 17.696C52.7886 18.144 53.1033 18.48 53.4873 18.704C53.8819 18.928 54.3033 19.04 54.7513 19.04ZM63.836 20L59.74 8.8H61.932L65.1 17.904L68.284 8.8H70.444L66.348 20H63.836ZM75.5835 20.192C74.7835 20.192 74.0742 20.0213 73.4555 19.68C72.8368 19.3387 72.3515 18.8587 71.9995 18.24C71.6475 17.6213 71.4715 16.9067 71.4715 16.096C71.4715 15.2747 71.6422 14.544 71.9835 13.904C72.3355 13.264 72.8155 12.768 73.4235 12.416C74.0422 12.0533 74.7675 11.872 75.5995 11.872C76.3782 11.872 77.0662 12.0427 77.6635 12.384C78.2608 12.7253 78.7248 13.1947 79.0555 13.792C79.3968 14.3787 79.5675 15.0347 79.5675 15.76C79.5675 15.8773 79.5622 16 79.5515 16.128C79.5515 16.256 79.5462 16.3893 79.5355 16.528H73.5035C73.5462 17.1467 73.7595 17.632 74.1435 17.984C74.5382 18.336 75.0128 18.512 75.5675 18.512C75.9835 18.512 76.3302 18.4213 76.6075 18.24C76.8955 18.048 77.1088 17.8027 77.2475 17.504H79.3275C79.1782 18.0053 78.9275 18.464 78.5755 18.88C78.2342 19.2853 77.8075 19.6053 77.2955 19.84C76.7942 20.0747 76.2235 20.192 75.5835 20.192ZM75.5995 13.536C75.0982 13.536 74.6555 13.68 74.2715 13.968C73.8875 14.2453 73.6422 14.672 73.5355 15.248H77.4875C77.4555 14.7253 77.2635 14.3093 76.9115 14C76.5595 13.6907 76.1222 13.536 75.5995 13.536ZM84.57 20.192C83.866 20.192 83.2473 20.08 82.714 19.856C82.1807 19.6213 81.754 19.3013 81.434 18.896C81.114 18.4907 80.922 18.0213 80.858 17.488H82.922C82.986 17.7973 83.1567 18.064 83.434 18.288C83.722 18.5013 84.09 18.608 84.538 18.608C84.986 18.608 85.3113 18.5173 85.514 18.336C85.7273 18.1547 85.834 17.9467 85.834 17.712C85.834 17.3707 85.6847 17.1413 85.386 17.024C85.0873 16.896 84.6713 16.7733 84.138 16.656C83.7967 16.5813 83.45 16.4907 83.098 16.384C82.746 16.2773 82.4207 16.144 82.122 15.984C81.834 15.8133 81.5993 15.6 81.418 15.344C81.2367 15.0773 81.146 14.752 81.146 14.368C81.146 13.664 81.4233 13.072 81.978 12.592C82.5433 12.112 83.3327 11.872 84.346 11.872C85.2847 11.872 86.0313 12.0907 86.586 12.528C87.1513 12.9653 87.4873 13.568 87.594 14.336H85.658C85.5407 13.7493 85.098 13.456 84.33 13.456C83.946 13.456 83.6473 13.5307 83.434 13.68C83.2313 13.8293 83.13 14.016 83.13 14.24C83.13 14.4747 83.2847 14.6613 83.594 14.8C83.9033 14.9387 84.314 15.0667 84.826 15.184C85.3807 15.312 85.8873 15.456 86.346 15.616C86.8153 15.7653 87.1887 15.9947 87.466 16.304C87.7433 16.6027 87.882 17.0347 87.882 17.6C87.8927 18.0907 87.7647 18.5333 87.498 18.928C87.2313 19.3227 86.8473 19.632 86.346 19.856C85.8447 20.08 85.2527 20.192 84.57 20.192ZM92.9823 20C92.1503 20 91.4836 19.7973 90.9823 19.392C90.4809 18.9867 90.2303 18.2667 90.2303 17.232V13.776H88.8703V12.064H90.2303L90.4703 9.936H92.2783V12.064H94.4223V13.776H92.2783V17.248C92.2783 17.632 92.3583 17.8987 92.5182 18.048C92.6889 18.1867 92.9769 18.256 93.3823 18.256H94.3743V20H92.9823Z" fill="#0961F7"/>
<path d="M10 19.7917H11.6667V6.25L16.995 9.10416C17.145 9.18454 17.2728 9.31821 17.3626 9.48857C17.4524 9.65893 17.5001 9.8585 17.5 10.0625V19.7917H19.1667V21.875H0.833332V19.7917H2.5V5.88541C2.49998 5.68387 2.54673 5.48665 2.63459 5.31765C2.72246 5.14866 2.84765 5.01516 2.995 4.93333L9.41416 1.36666C9.47767 1.3314 9.54722 1.31654 9.61649 1.32346C9.68576 1.33037 9.75255 1.35883 9.81078 1.40625C9.869 1.45366 9.91681 1.51853 9.94986 1.59494C9.98291 1.67135 10.0001 1.75688 10 1.84375V19.7917Z" fill="#0961F7"/>
</svg>
